<?xml version="1.0" encoding="utf-8"?>
<!-- Generator: Adobe Illustrator 16.0.4, SVG Export Plug-In . SVG Version: 6.00 Build 0)  -->
<!DOCTYPE svg PUBLIC "-//W3C//DTD SVG 1.1//EN" "http://www.w3.org/Graphics/SVG/1.1/DTD/svg11.dtd">
<svg version="1.1" id="Laag_1" xmlns="http://www.w3.org/2000/svg" xmlns:xlink="http://www.w3.org/1999/xlink" x="0px" y="0px"
	 width="500px" height="500px" viewBox="0 0 500 500" enable-background="new 0 0 500 500" xml:space="preserve">
<rect width="500" height="500"/>
<path fill-rule="evenodd" clip-rule="evenodd" fill="#FFFFFF" d="M412.601,251.304c-0.026,90.321-72.473,161.405-164.424,161.336
	c-87.759-0.066-159.102-73.559-159.002-163.793c0.098-88.054,73.307-159.469,163.379-159.374
	C340.818,89.565,412.626,162.174,412.601,251.304z M359.288,330.893c37.31-46.711,39.492-126.992-16.415-178.967
	c-54.767-50.913-139.812-47.744-190.62,6.609c-51.452,55.043-42.912,133.046-9.434,172.029
	c35.895-52.383,71.736-104.688,108.12-157.783C287.434,226.039,323.307,278.387,359.288,330.893z M250.931,219.694
	c-30.429,44.43-60.267,87.997-90.036,131.462c52.314,49.533,136.29,43.941,179.874-0.329
	C311.037,307.429,281.271,263.979,250.931,219.694z"/>
</svg>
